<svg xmlns="http://www.w3.org/2000/svg" width="17.211" height="18.677" viewBox="0 0 17.211 18.677">
  <g id="Icon_feather-box" data-name="Icon feather-box" transform="translate(1.142 1.028)">
    <path id="Path_21264" data-name="Path 21264" d="M19.426,14.61V7.977A1.658,1.658,0,0,0,18.6,6.542l-5.8-3.317a1.658,1.658,0,0,0-1.658,0l-5.8,3.317A1.658,1.658,0,0,0,4.5,7.977V14.61a1.658,1.658,0,0,0,.829,1.435l5.8,3.317a1.658,1.658,0,0,0,1.658,0l5.8-3.317a1.658,1.658,0,0,0,.829-1.435Z" transform="translate(-4.5 -3.003)" fill="none" stroke="#000" stroke-linecap="round" stroke-linejoin="round" stroke-width="2"/>
    <path id="Path_21265" data-name="Path 21265" d="M4.905,10.44l7.239,4.188,7.239-4.188" transform="translate(-4.681 -6.329)" fill="none" stroke="#000" stroke-linecap="round" stroke-linejoin="round" stroke-width="2"/>
    <path id="Path_21266" data-name="Path 21266" d="M18,26.358V18" transform="translate(-10.537 -9.71)" fill="none" stroke="#000" stroke-linecap="round" stroke-linejoin="round" stroke-width="2"/>
  </g>
</svg>
